<svg width="51" height="51" viewBox="0 0 51 51" fill="none" xmlns="http://www.w3.org/2000/svg">
<path d="M39.0672 12.7693C38.9405 12.7692 38.8162 12.7342 38.7081 12.6681C38.6 12.602 38.5122 12.5074 38.4543 12.3947C38.3965 12.2819 38.3709 12.1554 38.3803 12.029C38.3897 11.9026 38.4337 11.7813 38.5076 11.6783C38.927 11.0924 39.1508 10.3891 39.1472 9.66863C39.1459 8.83458 38.8475 8.02826 38.3055 7.39432C37.7635 6.76039 37.0133 6.34031 36.1896 6.20945C35.3658 6.0786 34.5224 6.24552 33.8106 6.68028C33.0989 7.11503 32.5653 7.78918 32.3056 8.58178C32.2457 8.75176 32.1217 8.89154 31.9601 8.97118C31.7984 9.05081 31.612 9.06397 31.4408 9.00782C31.2695 8.95167 31.1271 8.83069 31.044 8.6708C30.9609 8.51091 30.9437 8.32482 30.9961 8.15242C31.3578 7.04798 32.1012 6.10859 33.093 5.50284C34.0847 4.8971 35.2599 4.66467 36.4076 4.84726C37.5553 5.02986 38.6004 5.61553 39.3552 6.49915C40.11 7.38278 40.5252 8.5065 40.5262 9.66863C40.5311 10.6773 40.2175 11.6618 39.6303 12.4819C39.5662 12.5713 39.4816 12.644 39.3837 12.694C39.2857 12.744 39.1772 12.7698 39.0672 12.7693Z" fill="#5380EA"/>
<path d="M44.4402 20.737C44.3269 20.737 44.2154 20.709 44.1155 20.6556C44.0155 20.6022 43.9303 20.525 43.8674 20.4309C43.8044 20.3367 43.7656 20.2284 43.7545 20.1157C43.7433 20.003 43.7601 19.8892 43.8034 19.7845C44.0443 19.1923 44.1661 18.5583 44.1618 17.9189C44.1696 17.238 44.0423 16.5624 43.7872 15.9311C43.5321 15.2998 43.1543 14.7253 42.6756 14.2411C42.1969 13.7568 41.6269 13.3724 40.9986 13.11C40.3703 12.8476 39.6961 12.7125 39.0152 12.7125C38.3343 12.7125 37.6602 12.8476 37.0319 13.11C36.4035 13.3724 35.8335 13.7568 35.3549 14.2411C34.8762 14.7253 34.4983 15.2998 34.2432 15.9311C33.9881 16.5624 33.8608 17.238 33.8687 17.9189C33.8687 18.1017 33.7961 18.277 33.6669 18.4062C33.5376 18.5355 33.3623 18.6081 33.1795 18.6081C32.9967 18.6081 32.8214 18.5355 32.6922 18.4062C32.5629 18.277 32.4903 18.1017 32.4903 17.9189C32.4815 17.0564 32.6437 16.2007 32.9676 15.4013C33.2916 14.6019 33.7708 13.8746 34.3775 13.2616C34.9843 12.6485 35.7066 12.1619 36.5026 11.8297C37.2987 11.4976 38.1527 11.3266 39.0152 11.3266C39.8778 11.3266 40.7318 11.4976 41.5278 11.8297C42.3239 12.1619 43.0462 12.6485 43.6529 13.2616C44.2597 13.8746 44.7389 14.6019 45.0628 15.4013C45.3868 16.2007 45.549 17.0564 45.5401 17.9189C45.545 18.7399 45.3878 19.5537 45.0777 20.3138C45.0251 20.4395 44.9365 20.5467 44.8231 20.622C44.7096 20.6973 44.5764 20.7373 44.4402 20.737Z" fill="#5380EA"/>
<path d="M40.9109 31.212C40.6869 31.212 40.465 31.2003 40.2465 31.1789C40.1564 31.1698 40.0691 31.1431 39.9893 31.1003C39.9096 31.0575 39.8391 30.9994 39.7818 30.9293C39.7245 30.8592 39.6816 30.7786 39.6555 30.6919C39.6294 30.6052 39.6206 30.5143 39.6297 30.4242C39.6387 30.3342 39.6654 30.2468 39.7082 30.167C39.7511 30.0873 39.8092 30.0168 39.8793 29.9595C39.9493 29.9022 40.03 29.8593 40.1167 29.8332C40.2033 29.8071 40.2943 29.7983 40.3843 29.8074C40.5566 29.8244 40.7315 29.8331 40.9088 29.8336C41.9856 29.8347 43.0356 29.4977 43.9106 28.8702C44.7857 28.2426 45.4416 27.3561 45.7858 26.3358C46.1301 25.3155 46.1453 24.2129 45.8293 23.1835C45.5133 22.1541 44.882 21.2499 44.0246 20.5985C43.8784 20.4888 43.7817 20.3255 43.7559 20.1446C43.73 19.9636 43.7771 19.7798 43.8868 19.6336C43.9965 19.4874 44.1597 19.3907 44.3407 19.3648C44.5216 19.339 44.7054 19.3861 44.8517 19.4958C45.938 20.3221 46.7378 21.4684 47.1384 22.7732C47.5391 24.078 47.5204 25.4756 47.085 26.7692C46.6495 28.0629 45.8194 29.1873 44.7113 29.9843C43.6032 30.7813 42.2731 31.2107 40.9081 31.212H40.9109Z" fill="#5380EA"/>
<path d="M38.3766 45.6622C38.2035 45.6623 38.0366 45.5971 37.9093 45.4797C37.782 45.3623 37.7035 45.2013 37.6895 45.0287C37.6755 44.8561 37.727 44.6845 37.8338 44.5481C37.9406 44.4118 38.0947 44.3206 38.2657 44.2928C39.4682 44.0983 40.5618 43.4808 41.3496 42.5517C42.1374 41.6225 42.5676 40.4427 42.5628 39.2245C42.5628 38.7198 42.49 38.2177 42.3464 37.7338C42.3207 37.647 42.3124 37.556 42.3219 37.466C42.3314 37.376 42.3586 37.2887 42.4018 37.2092C42.445 37.1297 42.5035 37.0595 42.5739 37.0025C42.6442 36.9456 42.7251 36.9031 42.8119 36.8775C42.8987 36.8518 42.9897 36.8435 43.0797 36.853C43.1697 36.8625 43.257 36.8897 43.3365 36.9329C43.416 36.9761 43.4862 37.0346 43.5432 37.1049C43.6001 37.1753 43.6426 37.2562 43.6682 37.343C43.8501 37.9537 43.9429 38.5873 43.9439 39.2245C43.9498 40.7698 43.4038 42.2665 42.4042 43.4451C41.4047 44.6236 40.0173 45.4067 38.4917 45.6532C38.4536 45.6591 38.4152 45.6621 38.3766 45.6622Z" fill="#5380EA"/>
<path d="M43.0054 38.2279C42.8477 38.2281 42.6947 38.1741 42.572 38.075C42.4492 37.976 42.3642 37.8378 42.3311 37.6836C42.2979 37.5294 42.3187 37.3685 42.3898 37.2277C42.461 37.087 42.5783 36.9749 42.7222 36.9102C43.6214 36.5034 44.3844 35.8461 44.9198 35.0169C45.4551 34.1877 45.7402 33.2217 45.7408 32.2347C45.7453 31.0867 45.36 29.9711 44.6478 29.0707C44.5393 28.9267 44.4915 28.746 44.5147 28.5672C44.5379 28.3885 44.6302 28.2259 44.7718 28.1144C44.9134 28.0029 45.0931 27.9513 45.2723 27.9707C45.4515 27.9901 45.616 28.0789 45.7305 28.2181C46.34 28.9945 46.7649 29.8993 46.973 30.8642C47.1811 31.829 47.167 32.8285 46.9316 33.7871C46.6963 34.7457 46.2459 35.6381 45.6147 36.3969C44.9834 37.1556 44.1878 37.7608 43.288 38.1666C43.1992 38.2068 43.1029 38.2277 43.0054 38.2279Z" fill="#5380EA"/>
<path d="M32.241 49.6216C30.2711 49.6194 28.3825 48.8359 26.9895 47.443C25.5966 46.05 24.813 44.1614 24.8109 42.1915V5.74576C24.7801 5.12918 24.8801 4.51306 25.1042 3.93783C25.3283 3.3626 25.6716 2.84127 26.1114 2.40802C26.5962 1.97442 27.1777 1.66305 27.8074 1.49988C28.437 1.33671 29.0966 1.32648 29.731 1.47003C32.7826 2.19287 35.6453 3.55715 38.1287 5.47216C38.2713 5.58685 38.3625 5.75349 38.3822 5.93541C38.4019 6.11732 38.3485 6.29962 38.2338 6.44219C38.1192 6.58476 37.9525 6.67593 37.7706 6.69564C37.5887 6.71535 37.4064 6.66199 37.2638 6.54729C34.9476 4.77742 32.2887 3.50842 29.456 2.82084C29.0377 2.72127 28.6017 2.72298 28.1842 2.82583C27.7667 2.92867 27.3797 3.12969 27.0555 3.41217C26.7558 3.7188 26.5238 4.08497 26.3746 4.48697C26.2253 4.88896 26.1622 5.31782 26.1892 5.74576V42.1915C26.1898 43.5744 26.6638 44.9154 27.5325 45.9915C28.4013 47.0675 29.6122 47.8136 30.9639 48.1057C32.3157 48.3978 33.7266 48.2182 34.9621 47.5968C36.1976 46.9755 37.183 45.9498 37.7545 44.6905C37.8301 44.524 37.9687 44.3943 38.1399 44.33C38.3111 44.2657 38.5008 44.272 38.6673 44.3476C38.8339 44.4232 38.9635 44.5618 39.0278 44.733C39.0921 44.9042 39.0858 45.0939 39.0102 45.2604C38.4183 46.5595 37.4656 47.6611 36.2655 48.4342C35.0655 49.2074 33.6686 49.6195 32.241 49.6216Z" fill="#5380EA"/>
<path d="M11.9326 12.7693C11.8231 12.7694 11.7152 12.7433 11.6177 12.6933C11.5203 12.6434 11.4362 12.5709 11.3723 12.4819C10.7851 11.6618 10.4715 10.6773 10.4764 9.66863C10.4774 8.5065 10.8926 7.38278 11.6474 6.49915C12.4022 5.61553 13.4473 5.02986 14.595 4.84726C15.7427 4.66467 16.9179 4.8971 17.9097 5.50284C18.9014 6.10859 19.6449 7.04798 20.0065 8.15242C20.037 8.23897 20.0498 8.33074 20.0444 8.42233C20.0389 8.51393 20.0152 8.60351 19.9746 8.68583C19.9341 8.76814 19.8775 8.84153 19.8082 8.90169C19.7389 8.96184 19.6583 9.00756 19.5711 9.03615C19.4839 9.06474 19.3919 9.07563 19.3005 9.06818C19.209 9.06073 19.1199 9.03509 19.0385 8.99277C18.9571 8.95045 18.885 8.8923 18.8263 8.82172C18.7677 8.75115 18.7237 8.66957 18.697 8.58178C18.4381 7.78815 17.9047 7.11286 17.1925 6.67725C16.4804 6.24165 15.6362 6.07428 14.8118 6.20523C13.9873 6.33618 13.2366 6.75686 12.6944 7.39167C12.1523 8.02649 11.8543 8.83383 11.8541 9.66863C11.8504 10.3891 12.0742 11.0924 12.4936 11.6783C12.5675 11.7813 12.6116 11.9026 12.621 12.029C12.6304 12.1554 12.6047 12.2819 12.5469 12.3947C12.4891 12.5074 12.4013 12.602 12.2931 12.6681C12.185 12.7342 12.0607 12.7692 11.934 12.7693H11.9326Z" fill="#5380EA"/>
<path d="M6.55952 20.737C6.42303 20.7371 6.28957 20.6967 6.17608 20.6209C6.06258 20.545 5.97416 20.4372 5.92202 20.3111C5.61225 19.5518 5.45511 18.7389 5.45957 17.9189C5.45071 17.0564 5.61293 16.2007 5.93686 15.4013C6.2608 14.6019 6.74001 13.8746 7.34678 13.2616C7.95355 12.6485 8.67585 12.1619 9.47189 11.8297C10.2679 11.4976 11.1219 11.3266 11.9845 11.3266C12.847 11.3266 13.701 11.4976 14.4971 11.8297C15.2931 12.1619 16.0154 12.6485 16.6222 13.2616C17.2289 13.8746 17.7081 14.6019 18.0321 15.4013C18.356 16.2007 18.5182 17.0564 18.5094 17.9189C18.5094 18.1017 18.4368 18.277 18.3075 18.4062C18.1783 18.5355 18.003 18.6081 17.8202 18.6081C17.6374 18.6081 17.4621 18.5355 17.3329 18.4062C17.2036 18.277 17.131 18.1017 17.131 17.9189C17.1389 17.238 17.0116 16.5624 16.7565 15.9311C16.5014 15.2998 16.1235 14.7253 15.6449 14.2411C15.1662 13.7568 14.5962 13.3724 13.9678 13.11C13.3395 12.8476 12.6654 12.7125 11.9845 12.7125C11.3036 12.7125 10.6294 12.8476 10.0011 13.11C9.37278 13.3724 8.80277 13.7568 8.32409 14.2411C7.84541 14.7253 7.46758 15.2998 7.21247 15.9311C6.95737 16.5624 6.83007 17.238 6.83795 17.9189C6.83325 18.5592 6.95504 19.1942 7.19633 19.7873C7.26526 19.9559 7.26467 20.1449 7.19468 20.313C7.12468 20.4812 6.99098 20.6148 6.82279 20.6846C6.73925 20.719 6.64984 20.7367 6.55952 20.737Z" fill="#5380EA"/>
<path d="M10.089 31.212C8.7226 31.2137 7.39024 30.786 6.28012 29.9894C5.16999 29.1928 4.33824 28.0675 3.90236 26.7725C3.46649 25.4775 3.44853 24.0783 3.85102 22.7726C4.25352 21.4669 5.05612 20.3206 6.14543 19.4958C6.29166 19.3861 6.47546 19.339 6.65641 19.3648C6.83736 19.3907 7.00063 19.4874 7.1103 19.6336C7.21997 19.7798 7.26706 19.9636 7.24121 20.1446C7.21536 20.3255 7.11868 20.4888 6.97246 20.5985C6.11758 21.2512 5.48874 22.1554 5.17433 23.184C4.85993 24.2126 4.87576 25.3139 5.21961 26.333C5.56345 27.3522 6.21802 28.2379 7.09131 28.8658C7.9646 29.4937 9.0127 29.8322 10.0883 29.8336C10.2656 29.8336 10.4405 29.8249 10.6128 29.8074C10.7028 29.7983 10.7938 29.8071 10.8804 29.8332C10.9671 29.8593 11.0478 29.9022 11.1178 29.9595C11.1879 30.0168 11.246 30.0873 11.2888 30.167C11.3317 30.2468 11.3584 30.3342 11.3674 30.4242C11.3765 30.5143 11.3677 30.6052 11.3416 30.6919C11.3155 30.7786 11.2726 30.8592 11.2153 30.9293C11.158 30.9994 11.0875 31.0575 11.0078 31.1003C10.928 31.1431 10.8406 31.1698 10.7506 31.1789C10.5349 31.2003 10.313 31.212 10.089 31.212Z" fill="#5380EA"/>
<path d="M12.6232 45.6622C12.5855 45.6619 12.548 45.6589 12.5108 45.6532C10.9853 45.4067 9.59785 44.6236 8.59832 43.4451C7.59879 42.2665 7.0528 40.7698 7.05864 39.2245C7.05961 38.5873 7.15246 37.9537 7.33432 37.343C7.35997 37.2562 7.40248 37.1753 7.4594 37.1049C7.51632 37.0346 7.58654 36.9761 7.66606 36.9329C7.74557 36.8897 7.83283 36.8625 7.92283 36.853C8.01284 36.8435 8.10384 36.8518 8.19063 36.8775C8.27743 36.9031 8.35832 36.9456 8.42869 37.0025C8.49906 37.0595 8.55753 37.1297 8.60076 37.2092C8.64399 37.2887 8.67113 37.376 8.68064 37.466C8.69015 37.556 8.68184 37.647 8.65618 37.7338C8.5126 38.2177 8.43971 38.7198 8.43978 39.2245C8.43498 40.4427 8.86519 41.6225 9.65297 42.5517C10.4407 43.4808 11.5343 44.0983 12.7369 44.2928C12.9078 44.3206 13.062 44.4118 13.1688 44.5481C13.2755 44.6845 13.327 44.8561 13.313 45.0287C13.2991 45.2013 13.2206 45.3623 13.0933 45.4797C12.9659 45.5971 12.7991 45.6623 12.6259 45.6622H12.6232Z" fill="#5380EA"/>
<path d="M7.99455 38.228C7.89708 38.2277 7.80077 38.2068 7.71198 38.1666C6.812 37.7611 6.01609 37.1561 5.38453 36.3975C4.75297 35.6388 4.30232 34.7464 4.06671 33.7879C3.83109 32.8293 3.8167 31.8296 4.02461 30.8647C4.23252 29.8997 4.65728 28.9947 5.26674 28.2182C5.32195 28.1449 5.39123 28.0834 5.47052 28.0373C5.5498 27.9911 5.63751 27.9613 5.72848 27.9495C5.81945 27.9377 5.91186 27.9442 6.00029 27.9686C6.08872 27.993 6.1714 28.0347 6.24347 28.0915C6.31554 28.1482 6.37556 28.2188 6.42001 28.2991C6.46445 28.3793 6.49243 28.4676 6.5023 28.5588C6.51217 28.65 6.50374 28.7423 6.47749 28.8302C6.45124 28.9181 6.40771 28.9998 6.34945 29.0707C5.63726 29.9711 5.25188 31.0867 5.2564 32.2348C5.25702 33.2218 5.54207 34.1877 6.07743 35.0169C6.61279 35.8461 7.37578 36.5034 8.27505 36.9102C8.41889 36.9749 8.53619 37.087 8.60737 37.2277C8.67855 37.3685 8.69929 37.5294 8.66615 37.6836C8.633 37.8378 8.54797 37.976 8.42524 38.075C8.30251 38.1741 8.14951 38.2281 7.99179 38.228H7.99455Z" fill="#5380EA"/>
<path d="M18.759 49.6216C17.3318 49.6191 15.9353 49.2068 14.7357 48.4337C13.536 47.6606 12.5836 46.5591 11.9918 45.2604C11.9162 45.0939 11.9099 44.9042 11.9742 44.733C12.0385 44.5618 12.1682 44.4232 12.3347 44.3476C12.5012 44.272 12.6909 44.2657 12.8621 44.33C13.0333 44.3943 13.1719 44.5239 13.2475 44.6905C13.8197 45.9486 14.8052 46.973 16.0402 47.5934C17.2752 48.2139 18.6853 48.393 20.0363 48.1011C21.3872 47.8091 22.5975 47.0637 23.4661 45.9886C24.3346 44.9135 24.8092 43.5736 24.8107 42.1915V5.74576C24.8378 5.31781 24.7746 4.88896 24.6254 4.48696C24.4762 4.08497 24.2442 3.7188 23.9444 3.41217C23.6204 3.12965 23.2336 2.9286 22.8162 2.82575C22.3988 2.72289 21.9629 2.72121 21.5447 2.82084C18.7115 3.50531 16.0521 4.77281 13.7362 6.54246C13.5932 6.64502 13.4164 6.68901 13.2421 6.66543C13.0677 6.64185 12.909 6.55248 12.7984 6.41564C12.6878 6.27879 12.6338 6.10484 12.6473 5.92942C12.6608 5.754 12.741 5.59041 12.8712 5.47215C15.3549 3.55704 18.2178 2.19275 21.2697 1.47003C21.904 1.32654 22.5634 1.3368 23.193 1.49997C23.8225 1.66314 24.4039 1.97448 24.8886 2.40802C25.3284 2.84126 25.6716 3.3626 25.8958 3.93783C26.1199 4.51306 26.2199 5.12918 26.1891 5.74576V42.1915C26.1869 44.1614 25.4034 46.05 24.0105 47.443C22.6175 48.8359 20.7289 49.6194 18.759 49.6216Z" fill="#5380EA"/>
<path d="M25.4999 15.8272C25.4368 15.8273 25.3739 15.8185 25.3132 15.801C25.226 15.7765 25.1446 15.735 25.0735 15.6789C25.0025 15.6229 24.9431 15.5534 24.8989 15.4744C24.8547 15.3955 24.8264 15.3085 24.8158 15.2187C24.8052 15.1288 24.8124 15.0377 24.8369 14.9506C25.1994 13.6632 26.582 11.2979 29.1919 11.5584C29.3738 11.5767 29.5409 11.6664 29.6566 11.808C29.7723 11.9495 29.827 12.1312 29.8087 12.313C29.7905 12.4949 29.7007 12.6621 29.5592 12.7777C29.4176 12.8934 29.2359 12.9481 29.0541 12.9299C26.9286 12.7231 26.1698 15.2986 26.1595 15.3248C26.119 15.4688 26.0327 15.5956 25.9137 15.6863C25.7947 15.7769 25.6495 15.8264 25.4999 15.8272Z" fill="#5380EA"/>
<path d="M25.4999 19.2483C25.3502 19.2482 25.2045 19.1993 25.085 19.1091C24.9655 19.0188 24.8787 18.892 24.8376 18.748C24.8066 18.6412 24.0485 16.1339 21.943 16.351C21.7611 16.3693 21.5793 16.3145 21.4377 16.1988C21.2961 16.083 21.2063 15.9158 21.188 15.7338C21.1697 15.5519 21.2245 15.3701 21.3402 15.2285C21.456 15.0869 21.6232 14.9971 21.8052 14.9788C24.4241 14.719 25.7977 17.0843 26.1602 18.3717C26.1848 18.4588 26.1919 18.5499 26.1813 18.6398C26.1707 18.7297 26.1424 18.8166 26.0982 18.8956C26.054 18.9745 25.9946 19.044 25.9236 19.1001C25.8525 19.1561 25.7711 19.1976 25.6839 19.2221C25.6241 19.2393 25.5622 19.2481 25.4999 19.2483Z" fill="#5380EA"/>
<path d="M34.9419 23.908C33.9877 23.9088 33.045 23.6993 32.181 23.2943C31.317 22.8893 30.5529 22.2987 29.9432 21.5647C29.8827 21.4956 29.8366 21.415 29.8077 21.3278C29.7788 21.2405 29.7676 21.1484 29.7748 21.0568C29.7821 20.9652 29.8075 20.8759 29.8497 20.7943C29.892 20.7127 29.9501 20.6403 30.0207 20.5815C30.0913 20.5227 30.1729 20.4785 30.2608 20.4517C30.3487 20.4249 30.4411 20.416 30.5325 20.4254C30.6239 20.4348 30.7125 20.4624 30.7931 20.5066C30.8737 20.5507 30.9447 20.6106 31.0018 20.6826C31.6759 21.4925 32.5833 22.0751 33.6004 22.3509C34.6174 22.6266 35.6948 22.5823 36.6857 22.2238C37.6767 21.8653 38.5331 21.2101 39.1383 20.3474C39.7435 19.4848 40.0682 18.4565 40.0681 17.4027C40.0681 17.2711 40.0632 17.1401 40.0536 17.0106C40.0451 16.9195 40.0549 16.8276 40.0823 16.7403C40.1097 16.653 40.1542 16.5721 40.2133 16.5022C40.2723 16.4322 40.3447 16.3748 40.4261 16.3332C40.5076 16.2915 40.5965 16.2665 40.6878 16.2596C40.779 16.2527 40.8707 16.264 40.9575 16.2929C41.0443 16.3218 41.1245 16.3677 41.1934 16.4279C41.2623 16.4881 41.3185 16.5615 41.3587 16.6436C41.399 16.7258 41.4225 16.8152 41.4278 16.9065C41.4402 17.0705 41.4464 17.2359 41.4464 17.4027C41.4448 19.1274 40.759 20.781 39.5395 22.0006C38.3201 23.2202 36.6666 23.9062 34.9419 23.908Z" fill="#5380EA"/>
<path d="M39.0156 27.9121H39.0018C35.6482 27.8467 34.0727 24.8983 33.7081 23.3483C33.6684 23.1714 33.7001 22.9859 33.7962 22.8321C33.8924 22.6783 34.0452 22.5686 34.2217 22.5268C34.3982 22.485 34.5841 22.5144 34.739 22.6088C34.8939 22.7031 35.0054 22.8546 35.0493 23.0306C35.0838 23.1685 35.9156 26.4731 39.0287 26.5338C39.2115 26.5355 39.3861 26.6098 39.5141 26.7403C39.6421 26.8707 39.7131 27.0467 39.7113 27.2295C39.7096 27.4123 39.6353 27.5869 39.5048 27.7149C39.3744 27.8429 39.1984 27.9139 39.0156 27.9121Z" fill="#5380EA"/>
<path d="M34.8137 37.1611H34.7565C34.5744 37.146 34.4057 37.0592 34.2876 36.9197C34.1695 36.7803 34.1116 36.5996 34.1266 36.4175C34.2262 35.6996 34.1788 34.969 33.9873 34.27C33.7959 33.571 33.4644 32.9182 33.0129 32.3512C31.9235 31.2234 30.4701 30.5173 28.9101 30.3581C28.7278 30.3449 28.5582 30.2599 28.4386 30.1217C28.3189 29.9834 28.2591 29.8033 28.2723 29.621C28.2855 29.4387 28.3705 29.2691 28.5087 29.1494C28.647 29.0298 28.8271 28.97 29.0094 28.9832C30.9365 29.1693 32.7309 30.0473 34.0605 31.4546C34.6324 32.158 35.055 32.9705 35.3025 33.8426C35.5501 34.7147 35.6173 35.6281 35.5002 36.527C35.4863 36.6996 35.408 36.8607 35.2808 36.9782C35.1536 37.0957 34.9869 37.161 34.8137 37.1611Z" fill="#5380EA"/>
<path d="M30.416 43.1288H30.3836C30.2932 43.1246 30.2045 43.1027 30.1225 43.0642C30.0406 43.0258 29.967 42.9716 29.906 42.9047C29.845 42.8378 29.7978 42.7596 29.7671 42.6745C29.7363 42.5893 29.7226 42.499 29.7268 42.4086C29.8391 39.9813 31.4222 35.4533 36.5932 35.6359C36.6837 35.6393 36.7727 35.6604 36.855 35.6981C36.9373 35.7359 37.0114 35.7894 37.0731 35.8558C37.1347 35.9222 37.1826 36 37.2142 36.0849C37.2457 36.1698 37.2602 36.2601 37.2569 36.3506C37.2535 36.4411 37.2324 36.5301 37.1947 36.6124C37.1569 36.6947 37.1034 36.7688 37.037 36.8305C36.9706 36.8921 36.8928 36.94 36.8079 36.9716C36.723 37.0031 36.6327 37.0176 36.5422 37.0143C31.4381 36.8303 31.1148 42.2418 31.1038 42.4727C31.0953 42.6494 31.0192 42.8161 30.8911 42.9383C30.7631 43.0604 30.593 43.1286 30.416 43.1288Z" fill="#5380EA"/>
<path d="M17.7389 24.7316C16.0144 24.7297 14.361 24.044 13.1415 22.8247C11.922 21.6054 11.2358 19.9522 11.2336 18.2277C11.2336 18.0602 11.2398 17.8941 11.2523 17.7308C11.2576 17.6394 11.2811 17.5501 11.3213 17.4679C11.3616 17.3858 11.4178 17.3124 11.4867 17.2522C11.5556 17.192 11.6358 17.1461 11.7226 17.1172C11.8094 17.0883 11.9011 17.077 11.9923 17.0839C12.0835 17.0908 12.1725 17.1158 12.2539 17.1574C12.3354 17.1991 12.4078 17.2565 12.4668 17.3264C12.5258 17.3963 12.5704 17.4773 12.5978 17.5646C12.6252 17.6519 12.635 17.7437 12.6265 17.8349C12.6168 17.9644 12.612 18.0954 12.612 18.2277C12.6122 19.2813 12.937 20.3092 13.5423 21.1716C14.1475 22.034 15.0038 22.6889 15.9946 23.0473C16.9853 23.4057 18.0624 23.4501 19.0793 23.1744C20.0962 22.8988 21.0035 22.3165 21.6776 21.5068C21.7355 21.4373 21.8066 21.3798 21.8867 21.3377C21.9669 21.2956 22.0545 21.2697 22.1446 21.2615C22.2348 21.2533 22.3257 21.2629 22.4121 21.2898C22.4985 21.3167 22.5788 21.3604 22.6483 21.4183C22.7179 21.4762 22.7754 21.5473 22.8174 21.6274C22.8595 21.7075 22.8854 21.7952 22.8937 21.8853C22.9019 21.9754 22.8923 22.0663 22.8654 22.1528C22.8385 22.2392 22.7948 22.3195 22.7369 22.389C22.1272 23.1228 21.3632 23.7131 20.4993 24.118C19.6354 24.5229 18.6929 24.7324 17.7389 24.7316Z" fill="#5380EA"/>
<path d="M13.6618 28.7392C13.479 28.7409 13.3031 28.67 13.1726 28.5419C13.0421 28.4139 12.9678 28.2393 12.9661 28.0565C12.9644 27.8737 13.0353 27.6978 13.1633 27.5673C13.2913 27.4368 13.466 27.3625 13.6487 27.3608C16.7611 27.3001 17.5937 23.9982 17.6281 23.8576C17.672 23.6817 17.7835 23.5301 17.9384 23.4358C18.0933 23.3415 18.2792 23.312 18.4557 23.3538C18.6322 23.3956 18.7851 23.5053 18.8812 23.6591C18.9773 23.8129 19.009 23.9984 18.9693 24.1754C18.6081 25.7219 17.0285 28.6703 13.6756 28.7392H13.6618Z" fill="#5380EA"/>
<path d="M13.8045 38.9089C13.6312 38.9095 13.464 38.8448 13.3363 38.7276C13.2086 38.6105 13.1296 38.4496 13.1153 38.2769C12.9969 37.3768 13.0636 36.4621 13.3111 35.5887C13.5587 34.7153 13.9819 33.9016 14.555 33.1976C15.8842 31.7902 17.6784 30.9122 19.6054 30.7261C19.7872 30.7154 19.9661 30.7761 20.1038 30.8953C20.2415 31.0145 20.3273 31.1828 20.3428 31.3643C20.3494 31.4546 20.3381 31.5453 20.3096 31.6312C20.2811 31.7171 20.236 31.7966 20.1768 31.8651C20.1176 31.9336 20.0455 31.9897 19.9646 32.0303C19.8837 32.0709 19.7956 32.0952 19.7053 32.1017C18.1431 32.2648 16.688 32.9724 15.595 34.1004C15.1459 34.6676 14.8164 35.3199 14.6263 36.0179C14.4362 36.7159 14.3894 37.4452 14.4888 38.1618C14.5039 38.3439 14.446 38.5246 14.3279 38.6641C14.2097 38.8035 14.041 38.8903 13.8589 38.9054L13.8045 38.9089Z" fill="#5380EA"/>
<path d="M18.2021 44.8758C18.0249 44.876 17.8545 44.808 17.7261 44.6858C17.5978 44.5636 17.5214 44.3967 17.5129 44.2197C17.5012 43.9889 17.1683 38.5622 12.0745 38.76C11.8918 38.7667 11.7138 38.7006 11.5797 38.5761C11.4457 38.4517 11.3666 38.2791 11.3598 38.0963C11.3531 37.9135 11.4192 37.7355 11.5437 37.6015C11.6681 37.4675 11.8408 37.3884 12.0235 37.3816C17.1876 37.1934 18.7776 41.7269 18.8899 44.1543C18.8941 44.2447 18.8804 44.335 18.8497 44.4202C18.8189 44.5053 18.7717 44.5835 18.7107 44.6504C18.6497 44.7173 18.5761 44.7715 18.4942 44.8099C18.4123 44.8484 18.3235 44.8703 18.2331 44.8745L18.2021 44.8758Z" fill="#5380EA"/>
<path d="M25.4998 42.8807H25.4957C25.4051 42.8801 25.3156 42.8617 25.2321 42.8266C25.1487 42.7914 25.0729 42.7401 25.0093 42.6757C24.9457 42.6112 24.8954 42.5348 24.8613 42.4509C24.8272 42.367 24.81 42.2772 24.8106 42.1867C24.8559 40.8351 24.4218 39.511 23.5849 38.4486C22.7481 37.3863 21.5625 36.6541 20.2379 36.3816C20.0584 36.347 19.9 36.2425 19.7976 36.091C19.6951 35.9396 19.6571 35.7537 19.6917 35.5742C19.7263 35.3947 19.8308 35.2364 19.9823 35.1339C20.1337 35.0315 20.3196 34.9934 20.4991 35.0281C20.5563 35.0391 26.2269 36.1997 26.189 42.1956C26.1879 42.3777 26.1148 42.5519 25.9857 42.6803C25.8566 42.8086 25.6819 42.8807 25.4998 42.8807Z" fill="#5380EA"/>
</svg>
