<svg width="64" height="64" viewBox="0 0 64 64" fill="none" xmlns="http://www.w3.org/2000/svg">
<rect x="11.3738" y="12.1965" width="42.2548" height="42.2548" stroke="#0F172A" stroke-width="3"/>
<rect x="2.12132" y="32" width="42.2548" height="42.2548" transform="rotate(-45 2.12132 32)" stroke="#0F172A" stroke-width="3"/>
<path d="M20.5703 42.1693V25.5073H24.561C25.6855 25.5073 26.6317 25.6445 27.3997 25.9187C28.1814 26.1793 28.771 26.6318 29.1687 27.2764C29.5801 27.9209 29.7858 28.7986 29.7858 29.9094C29.7858 30.5814 29.7241 31.1847 29.6007 31.7196C29.4773 32.2544 29.2647 32.7138 28.963 33.0978C28.675 33.4681 28.2705 33.756 27.7494 33.9618L30.0738 42.1693H27.0294L25.0135 34.5377H23.6147V42.1693H20.5703ZM23.6147 32.6247H24.561C25.1507 32.6247 25.6169 32.5424 25.9598 32.3778C26.3163 32.1996 26.57 31.9253 26.7209 31.555C26.8717 31.171 26.9471 30.6842 26.9471 30.0945C26.9471 29.258 26.7894 28.634 26.474 28.2226C26.1723 27.7975 25.5895 27.5849 24.7255 27.5849H23.6147V32.6247Z" fill="#0F172A"/>
<path d="M34.5694 42.1693V25.5073H38.5601C39.6846 25.5073 40.6308 25.6445 41.3988 25.9187C42.1805 26.1793 42.7701 26.6318 43.1678 27.2764C43.5792 27.9209 43.785 28.7986 43.785 29.9094C43.785 30.5814 43.7232 31.1847 43.5998 31.7196C43.4764 32.2544 43.2638 32.7138 42.9621 33.0978C42.6742 33.4681 42.2696 33.756 41.7485 33.9618L44.0729 42.1693H41.0285L39.0126 34.5377H37.6138V42.1693H34.5694ZM37.6138 32.6247H38.5601C39.1498 32.6247 39.616 32.5424 39.9589 32.3778C40.3154 32.1996 40.5691 31.9253 40.72 31.555C40.8708 31.171 40.9462 30.6842 40.9462 30.0945C40.9462 29.258 40.7885 28.634 40.4731 28.2226C40.1714 27.7975 39.5886 27.5849 38.7246 27.5849H37.6138V32.6247Z" fill="#0F172A"/>
</svg>
