<svg width="52" height="52" viewBox="0 0 52 52" fill="none" xmlns="http://www.w3.org/2000/svg">
<g clip-path="url(#clip0_2_5130)">
<path d="M45.1864 36.816C48.8881 34.9651 51.1875 31.2447 51.1875 27.1058V23.5625H35.1642L33.4604 28.6731C33.3629 28.9689 33.3125 29.2768 33.3125 29.588C33.3125 30.6914 33.9251 31.6842 34.9123 32.1774L34.9375 33.7886C34.9375 34.7466 35.3104 35.6476 35.9881 36.3252C36.5844 36.9216 37.3579 37.2653 38.1875 37.3425V40.8338C37.4164 41.3904 36.7209 42.0331 36.114 42.7464C34.5743 40.7583 32.3594 39.4469 29.8594 39.0601L29.523 38.0502C31.6899 37.5546 33.3125 35.6159 33.3125 33.3011V29.588V23.5625H30.875V20.6944C30.875 19.7137 31.3324 18.7809 32.1295 18.1358C34.4305 16.2744 35.75 13.5143 35.75 10.5625C35.75 7.79187 34.5654 5.14231 32.4984 3.29387C30.4338 1.44706 27.6591 0.567938 24.8804 0.875063C20.6026 1.35281 17.0235 4.77669 16.3694 9.01712C15.8324 12.4954 17.1259 15.8917 19.8291 18.1025C20.6521 18.7761 21.125 19.721 21.125 20.6968V23.5625H18.6875V29.588V33.3011C18.6875 35.6159 20.3101 37.5546 22.477 38.0502L22.1398 39.0609C19.6674 39.4493 17.4224 40.7851 15.8884 42.7505C15.2807 42.0355 14.5844 41.392 13.8117 40.8338V37.3425C14.6413 37.2653 15.4147 36.9216 16.0111 36.3244C16.6896 35.6476 17.0625 34.7474 17.0625 33.7886V32.1896L17.0877 32.1774C18.0749 31.6842 18.6875 30.6914 18.6875 29.588C18.6875 29.2768 18.6371 28.9689 18.5388 28.6723L16.8358 23.5625H14.625V9.55825L10.8404 1.989C10.478 1.26344 9.74919 0.8125 8.9375 0.8125C8.12581 0.8125 7.397 1.26344 7.03463 1.98819L3.25 9.55825V23.5625H0.8125V27.1058C0.8125 31.2447 3.11187 34.9651 6.81362 36.816L7.3125 37.0654V38.3939C3.45638 39.6403 0.8125 43.2226 0.8125 47.3257V51.1875H51.1875V47.3249C51.1875 43.2217 48.5436 39.6394 44.6875 38.3931V37.0646L45.1864 36.816ZM49.5625 27.1058C49.5625 30.5354 47.6962 33.6164 44.6875 35.2276V32.8364L45.5983 31.9256C46.059 31.4657 46.3125 30.8531 46.3125 30.2014V30.0625C46.3125 29.003 45.6333 28.0995 44.6875 27.7639V25.1875H49.5625V27.1058ZM39.8125 37.375H41.4375V35.75H38.5239H38.5231C37.9998 35.75 37.5083 35.5461 37.1377 35.1756C36.7721 34.8107 36.5625 34.3054 36.5625 33.7886V31.1854L35.6395 30.7231C35.2064 30.5077 34.9375 30.0723 34.9375 29.588C34.9375 29.4515 34.9594 29.3158 35.0025 29.1866L36.3358 25.1875H43.0625V29.25H43.875C44.3227 29.25 44.6875 29.6148 44.6875 30.0625V30.2014C44.6875 30.4184 44.603 30.6231 44.4494 30.7767L43.0625 32.1636V38.4581L40.5624 39.4997C40.3073 39.6061 40.0571 39.7207 39.8125 39.8434V37.375ZM26 41.9112L23.6795 39.5817L24.1483 38.1753H27.8517L28.3205 39.5817L26 41.9112ZM22.4673 40.6689L24.8519 43.0617L23.2221 44.6916L22.3332 40.69C22.3779 40.6827 22.4226 40.6754 22.4673 40.6689ZM29.5336 40.6672C29.5782 40.6737 29.6229 40.6811 29.6676 40.6884L28.7779 44.6908L27.1481 43.0609L29.5336 40.6672ZM20.8577 16.8447C18.6046 15.002 17.5273 12.168 17.9749 9.26413C18.5193 5.73706 21.4988 2.88762 25.0599 2.4895C27.4121 2.2295 29.6684 2.94288 31.4145 4.5045C33.137 6.04581 34.125 8.25338 34.125 10.5625C34.125 13.0211 33.0249 15.3213 31.1082 16.8724C30.03 17.7442 29.3784 18.9824 29.2719 20.3125H27.6811L28.1686 13H29.25C30.5939 13 31.6875 11.9064 31.6875 10.5625C31.6875 9.21863 30.5939 8.125 29.25 8.125H29.1452C27.8671 8.125 26.7987 9.12437 26.7134 10.4008L26.6484 11.375H25.3516L25.2866 10.4C25.2013 9.12438 24.1329 8.125 22.8548 8.125H22.75C21.4061 8.125 20.3125 9.21863 20.3125 10.5625C20.3125 11.9064 21.4061 13 22.75 13H23.8314L24.3189 20.3125H22.7272C22.6184 18.9889 21.9546 17.7409 20.8577 16.8447ZM25.9472 20.3125L25.4597 13H26.5395L26.052 20.3125H25.9472ZM28.2766 11.375L28.3343 10.5089C28.3628 10.0831 28.7194 9.75 29.1452 9.75H29.25C29.6977 9.75 30.0625 10.1148 30.0625 10.5625C30.0625 11.0102 29.6977 11.375 29.25 11.375H28.2766ZM23.7234 11.375H22.75C22.3023 11.375 21.9375 11.0102 21.9375 10.5625C21.9375 10.1148 22.3023 9.75 22.75 9.75H22.8548C23.2806 9.75 23.6373 10.0831 23.6657 10.5089L23.7234 11.375ZM22.75 21.9375H29.25V23.5625H22.75V21.9375ZM20.3125 33.3011V25.1875H31.6875V33.3011C31.6875 35.0935 30.2299 36.5511 28.4375 36.5511H23.5625C21.7701 36.5511 20.3125 35.0927 20.3125 33.3011ZM13.2251 42.4206L12.6652 43.5394L9.64356 41.7267L9.30475 40.3723L10.8119 41.0004C11.6935 41.3668 12.5019 41.8478 13.2251 42.4206ZM16.9975 29.1858C17.0406 29.3158 17.0625 29.4507 17.0625 29.588C17.0625 30.0723 16.7936 30.5077 16.3605 30.7239L15.4375 31.1862V33.7894C15.4375 34.3135 15.2336 34.8059 14.8622 35.1772C14.4926 35.5469 14.0002 35.75 13.4769 35.75H13.4761H10.5625V37.375H12.1875V39.8442C11.9429 39.7215 11.6927 39.6069 11.4376 39.5005L8.9375 38.4581V32.1636L7.55056 30.7767C7.397 30.6231 7.3125 30.4184 7.3125 30.2014V30.0625C7.3125 29.6148 7.67731 29.25 8.125 29.25H8.9375V25.1875H15.6642L16.9975 29.1858ZM9.75 23.5625V10.5625H13V23.5625H9.75ZM8.48819 2.71456C8.65962 2.3725 9.21537 2.3725 9.386 2.71456L12.4979 8.9375H5.37712L8.48819 2.71456ZM4.875 10.5625H8.125V23.5625H4.875V10.5625ZM2.4375 27.1058V25.1875H7.3125V27.7639C6.36675 28.0995 5.6875 29.003 5.6875 30.0625V30.2014C5.6875 30.8523 5.941 31.4649 6.40169 31.9256L7.3125 32.8364V35.2276C4.30381 33.6156 2.4375 30.5354 2.4375 27.1058ZM7.3125 49.5625V44.6875H5.6875V49.5625H2.4375V47.3249C2.4375 44.0277 4.50125 41.1361 7.54488 40.0294L8.23063 42.7733L13.3339 45.8356L14.4584 43.5858C15.9274 45.2173 16.8512 47.3037 17.03 49.5625H7.3125ZM18.6599 49.5625C18.5258 47.5987 17.9083 45.7421 16.9024 44.1318C17.8571 42.7513 19.2099 41.6991 20.7618 41.1092L22.2779 47.9334L26 44.2114L29.7221 47.9334L31.2398 41.1028C32.7949 41.6853 34.1339 42.7302 35.0984 44.1301C34.0925 45.7405 33.4734 47.5979 33.3401 49.5625H18.6599ZM49.5625 47.3249V49.5625H46.3125V44.6875H44.6875V49.5625H34.97C35.269 45.7827 37.6431 42.4767 41.1881 40.9996L43.9327 39.8564C47.2607 40.8078 49.5625 43.8417 49.5625 47.3249Z" fill="#5380EA"/>
<path d="M29.25 30.875H27.625C27.625 31.3227 27.2602 31.6875 26.8125 31.6875H23.5625V33.3125H26.8125C28.1564 33.3125 29.25 32.2189 29.25 30.875Z" fill="#5380EA"/>
<path d="M39.8125 19.5C39.8125 20.8439 40.9061 21.9375 42.25 21.9375C43.5939 21.9375 44.6875 20.8439 44.6875 19.5C44.6875 18.1561 43.5939 17.0625 42.25 17.0625C40.9061 17.0625 39.8125 18.1561 39.8125 19.5ZM43.0625 19.5C43.0625 19.9477 42.6977 20.3125 42.25 20.3125C41.8023 20.3125 41.4375 19.9477 41.4375 19.5C41.4375 19.0523 41.8023 18.6875 42.25 18.6875C42.6977 18.6875 43.0625 19.0523 43.0625 19.5Z" fill="#5380EA"/>
<path d="M39 7.0915C39 5.421 40.3585 4.0625 42.029 4.0625H42.4718C44.1415 4.0625 45.5 5.421 45.5 7.0915C45.5 8.01694 45.0856 8.879 44.3633 9.45669L41.4375 11.7975V15.4375H43.0625V12.5775L45.3781 10.725C46.488 9.83775 47.125 8.51337 47.125 7.0915C47.125 4.52481 45.0377 2.4375 42.471 2.4375H42.0282C39.4623 2.4375 37.375 4.52481 37.375 7.0915V7.3125H39V7.0915Z" fill="#5380EA"/>
</g>
<defs>
<clipPath id="clip0_2_5130">
<rect width="52" height="52" fill="white"/>
</clipPath>
</defs>
</svg>
