<svg width="52" height="52" viewBox="0 0 52 52" fill="none" xmlns="http://www.w3.org/2000/svg">
<g clip-path="url(#clip0_2_5139)">
<path d="M49.6899 39.9937L41.5154 22.5396C41.337 22.1586 40.8835 21.9946 40.5024 22.1728C40.1214 22.3513 39.9572 22.8049 40.1357 23.1858L48.3101 40.6396C48.6757 41.4215 48.3373 42.3556 47.5556 42.7218L31.8828 50.0616C31.1013 50.4277 30.1674 50.0896 29.8011 49.308L26.8709 43.0495L34.4976 24.6483C34.8272 23.853 34.8087 22.949 34.4471 22.1679L30.2754 13.1565L35.6829 14.8672C36.099 14.9986 36.4435 15.3005 36.6284 15.6962L38.6314 19.9714C38.7609 20.2478 39.0353 20.4101 39.3217 20.4101C39.4299 20.4101 39.5399 20.3869 39.6444 20.338C40.0254 20.1596 40.1895 19.7059 40.0109 19.3249L38.0082 15.0504C37.6438 14.2702 36.9634 13.6739 36.142 13.4146L29.6206 11.3514C30.9651 9.38737 32.3814 6.76105 32.8687 5.58526C34.1466 2.50221 33.1152 0.787621 31.724 0.210946C30.3327 -0.365526 28.3909 0.116797 27.113 3.19985C26.5635 4.52585 26.0592 7.4137 25.7006 9.89113C25.2738 9.91763 24.8448 10.007 24.427 10.1668L14.5604 13.9366C13.7711 14.2382 13.1328 14.859 12.8092 15.6395L2.25628 41.1019C1.94031 41.8642 1.94011 42.7038 2.25577 43.4663C2.57133 44.2287 3.16496 44.8225 3.92719 45.1384L7.01369 46.4176C7.40238 46.5787 7.84814 46.3942 8.00911 46.0055C8.17019 45.6169 7.98576 45.1712 7.59707 45.0101L4.51057 43.7308C4.12433 43.5708 3.8234 43.2698 3.66343 42.8834C3.50347 42.4969 3.50357 42.0715 3.66374 41.6852L14.217 16.2225C14.381 15.8269 14.7045 15.5122 15.1045 15.3594L24.9711 11.5896C25.1406 11.5248 25.3129 11.4778 25.4861 11.4473C25.3919 12.1628 25.3156 12.7885 25.2603 13.2575C24.9372 13.276 24.6172 13.3557 24.3153 13.4971C23.6927 13.7886 23.2209 14.3052 22.9869 14.9515C22.7528 15.598 22.7845 16.2967 23.076 16.9193C23.513 17.8527 24.4423 18.4013 25.4107 18.4013C25.7756 18.4013 26.1464 18.3233 26.4982 18.1586C27.1207 17.8671 27.5925 17.3504 27.8266 16.7042C28.0606 16.0577 28.029 15.359 27.7375 14.7364C27.5204 14.2729 27.1783 13.8932 26.751 13.6327C26.8076 13.1476 26.8941 12.4323 27.0037 11.5996C27.6631 11.8566 28.2268 12.3574 28.5436 13.042L33.0644 22.8076C33.2477 23.2034 33.257 23.6618 33.0899 24.0648L22.5438 49.5103C22.3837 49.8965 22.0828 50.1975 21.6964 50.3574C21.31 50.5175 20.8845 50.5173 20.4981 50.3572L11.0732 46.451C10.6847 46.2897 10.2388 46.4744 10.0778 46.863C9.91677 47.2517 10.1011 47.6974 10.4898 47.8585L19.9147 51.7647C20.3002 51.9244 20.7 52 21.0935 52C22.306 52 23.4589 51.2816 23.9512 50.0936L26.0808 44.9554L28.4213 49.9541C28.946 51.0741 30.0615 51.7327 31.2235 51.7327C31.6616 51.7327 32.1067 51.639 32.529 51.4411L48.2018 44.1014C49.7438 43.3789 50.4114 41.5365 49.6899 39.9937ZM26.3941 16.1854C26.2986 16.4491 26.1061 16.6598 25.852 16.7788C25.3278 17.0244 24.7013 16.7975 24.4557 16.2733C24.3368 16.0193 24.3239 15.7342 24.4194 15.4704C24.5148 15.2067 24.7073 14.996 24.9613 14.877C25.1029 14.8106 25.2541 14.7773 25.406 14.7773C25.5265 14.7773 25.6474 14.7984 25.7641 14.8406C26.0277 14.9361 26.2385 15.1285 26.3575 15.3825C26.4766 15.6367 26.4896 15.9216 26.3941 16.1854ZM28.3135 10.5642C27.9721 10.3478 27.6022 10.1797 27.2155 10.0644C27.559 7.68711 28.0301 4.96735 28.5209 3.78302C28.8665 2.94888 29.8138 1.06854 31.1409 1.61831C32.4679 2.16837 31.8073 4.16774 31.4615 5.00178C30.993 6.13197 29.6119 8.68608 28.3135 10.5642Z" fill="#5380EA"/>
<path d="M15.6825 25.6846C17.3329 24.8062 19.2266 24.6228 21.0149 25.1689C23.9832 26.0751 25.9755 28.7669 25.9727 31.8672C25.9723 32.2879 26.313 32.6293 26.7338 32.6297C26.734 32.6297 26.7342 32.6297 26.7345 32.6297C27.1549 32.6297 27.4959 32.2891 27.4963 31.8686C27.4979 30.0798 26.9161 28.2944 25.858 26.8413C24.7635 25.3383 23.2426 24.256 21.4596 23.7116C16.9646 22.3395 12.1915 24.88 10.8194 29.3749C10.1547 31.5524 10.3778 33.8582 11.4475 35.8679C12.5172 37.8777 14.3053 39.3505 16.4827 40.0152C17.2965 40.2637 18.1353 40.387 18.9726 40.387C20.1632 40.387 21.3499 40.1373 22.453 39.6431C24.3133 38.8097 25.8139 37.3401 26.6784 35.505C26.8578 35.1244 26.6946 34.6704 26.314 34.4912C25.9335 34.3117 25.4795 34.475 25.3002 34.8556C23.8308 37.9749 20.2317 39.5667 16.9277 38.5579C15.1395 38.0121 13.671 36.8025 12.7925 35.1521C11.9141 33.5017 11.7309 31.6079 12.2769 29.8197C12.8225 28.0316 14.0322 26.563 15.6825 25.6846Z" fill="#5380EA"/>
<path d="M21.9013 29.7901C21.719 29.4474 21.4141 29.1961 21.0426 29.0829L20.6966 28.9773L20.9317 28.207C21.0545 27.8046 20.8279 27.3788 20.4257 27.256C20.0231 27.1334 19.5975 27.3598 19.4746 27.7621L19.2342 28.5498C18.2193 28.3746 17.2057 28.9775 16.8975 29.9876C16.7356 30.5179 16.7899 31.0795 17.0504 31.5688C17.3108 32.0582 17.7464 32.417 18.2766 32.5788L19.2355 32.8715C19.3766 32.9145 19.4924 33.0099 19.5617 33.1401C19.6309 33.2702 19.6454 33.4196 19.6023 33.5607C19.5592 33.7017 19.4639 33.8174 19.3337 33.8867C19.2036 33.9561 19.0543 33.9705 18.9132 33.9273L18.4338 33.781L17.4233 33.4725C17.5026 33.0914 17.2794 32.7055 16.8996 32.5896C16.497 32.4671 16.0714 32.6934 15.9486 33.0958C15.7147 33.8622 16.1477 34.676 16.9142 34.9101L17.2604 35.0158L17.0252 35.786C16.9025 36.1884 17.129 36.6143 17.5313 36.7371C17.6055 36.7597 17.6803 36.7705 17.754 36.7705C18.0802 36.7705 18.3821 36.5592 18.4824 36.2309L18.7226 35.444C18.8404 35.4645 18.9588 35.4759 19.077 35.4759C19.4125 35.4759 19.7451 35.3937 20.0496 35.2316C20.5389 34.9712 20.8977 34.5356 21.0595 34.0054C21.3936 32.9108 20.775 31.7484 19.6804 31.4143L18.7214 31.1216C18.5805 31.0785 18.4647 30.9831 18.3954 30.8529C18.3262 30.7228 18.3116 30.5734 18.3548 30.4324C18.4436 30.1413 18.7525 29.9765 19.044 30.0656L19.5231 30.2119C19.5232 30.2119 19.5233 30.212 19.5234 30.212C19.5235 30.212 19.5236 30.212 19.5236 30.212L20.5338 30.5204C20.4545 30.9015 20.6777 31.2873 21.0575 31.4032C21.4599 31.526 21.8857 31.2994 22.0085 30.897C22.1218 30.5259 22.0837 30.1327 21.9013 29.7901Z" fill="#5380EA"/>
<path d="M44.6447 39.9536L39.7693 29.5933C39.59 29.2126 39.136 29.0492 38.7557 29.2284C38.375 29.4076 38.2117 29.8615 38.3908 30.242L43.2662 40.6023C43.3961 40.8782 43.67 41.04 43.956 41.04C44.0647 41.04 44.1751 41.0166 44.2798 40.9672C44.6604 40.7881 44.8237 40.3343 44.6447 39.9536Z" fill="#5380EA"/>
<path d="M41.2387 41.7752L36.3633 31.4149C36.1842 31.0341 35.7301 30.8708 35.3497 31.05C34.9691 31.2291 34.8056 31.683 34.9848 32.0636L39.8602 42.4239C39.99 42.6997 40.264 42.8615 40.55 42.8615C40.6587 42.8615 40.7691 42.8381 40.8738 42.7888C41.2545 42.6096 41.4178 42.1557 41.2387 41.7752Z" fill="#5380EA"/>
</g>
<defs>
<clipPath id="clip0_2_5139">
<rect width="52" height="52" fill="white"/>
</clipPath>
</defs>
</svg>
