<svg width="65" height="65" viewBox="0 0 65 65" fill="none" xmlns="http://www.w3.org/2000/svg">
<path d="M40.9662 22.75C39.0412 22.7514 37.1373 23.1517 35.3748 23.9257C33.6122 24.6996 32.0291 25.8305 30.7255 27.2469C28.3835 29.8885 27.0903 33.2965 27.0903 36.8268C27.0903 40.3571 28.3835 43.7651 30.7255 46.4068C31.6855 47.4677 32.858 48.3149 34.1666 48.8935C35.4753 49.472 36.891 49.769 38.3218 49.7651C39.7515 49.7604 41.1646 49.4596 42.4722 48.8816C43.7799 48.3036 44.9535 47.4609 45.9192 46.4068C47.6495 44.3546 48.5821 41.7475 48.5459 39.0634C48.5097 36.3794 47.5071 33.7984 45.7221 31.7937C45.0129 30.9983 44.1444 30.3608 43.173 29.9226C42.2016 29.4844 41.149 29.2553 40.0833 29.25C38.9919 29.2557 37.9132 29.4844 36.9134 29.922C35.9136 30.3596 35.0137 30.9969 34.2691 31.7948C31.4643 34.8552 32.2681 39.8385 34.7771 42.5739C35.3097 43.1537 35.9566 43.6167 36.6771 43.9339C37.3975 44.251 38.1759 44.4154 38.9631 44.4167C39.7473 44.4155 40.5227 44.2521 41.2406 43.9368C41.9586 43.6216 42.6036 43.1612 43.1351 42.5847C43.7943 41.8672 44.161 40.9288 44.163 39.9544C44.165 38.9799 43.8022 38.0401 43.1459 37.3198C42.8245 36.9787 42.4369 36.7067 42.0068 36.5204C41.5767 36.3342 41.1132 36.2375 40.6445 36.2364H40.638C40.1718 36.2382 39.7109 36.3352 39.2836 36.5215C38.8562 36.7078 38.4714 36.9794 38.1528 37.3198C38.0557 37.4237 37.9801 37.5458 37.9301 37.6791C37.8802 37.8123 37.8571 37.9541 37.8619 38.0963C37.8668 38.2385 37.8997 38.3783 37.9586 38.5078C38.0175 38.6373 38.1014 38.7539 38.2054 38.851C38.3093 38.9481 38.4315 39.0238 38.5647 39.0737C38.6979 39.1236 38.8397 39.1468 38.9819 39.1419C39.1241 39.137 39.2639 39.1042 39.3934 39.0453C39.5229 38.9864 39.6396 38.9025 39.7366 38.7985C39.8522 38.6738 39.9923 38.5744 40.1482 38.5065C40.3041 38.4386 40.4723 38.4038 40.6423 38.4042C40.9911 38.4127 41.3231 38.556 41.5686 38.8039C41.855 39.1205 42.0118 39.5333 42.0078 39.9603C42.0038 40.3872 41.8393 40.797 41.5469 41.1082C41.2208 41.4689 40.8224 41.757 40.3776 41.9537C39.9328 42.1505 39.4516 42.2514 38.9653 42.25C38.4779 42.2519 37.9955 42.1514 37.5495 41.9548C37.1034 41.7583 36.7037 41.4702 36.3761 41.1092C34.554 39.1224 33.8975 35.4109 35.8681 33.2583C36.4084 32.6807 37.061 32.2195 37.7858 31.9028C38.5106 31.5862 39.2924 31.4207 40.0833 31.4167C40.8486 31.4233 41.604 31.5907 42.3005 31.908C42.9969 32.2252 43.619 32.6853 44.1263 33.2583C45.5368 34.8671 46.3308 36.9241 46.3671 39.0633C46.4034 41.2025 45.6796 43.2853 44.3246 44.941C43.5649 45.778 42.6386 46.4468 41.6051 46.9045C40.5716 47.3621 39.4537 47.5986 38.3234 47.5986C37.1931 47.5986 36.0753 47.3621 35.0418 46.9045C34.0083 46.4468 33.082 45.778 32.3223 44.941C30.3384 42.7033 29.2429 39.8163 29.2429 36.8258C29.2429 33.8352 30.3384 30.9482 32.3223 28.7105C33.4227 27.5152 34.759 26.5609 36.2468 25.9079C37.7345 25.2549 39.3415 24.9174 40.9662 24.9167C42.5918 24.9079 44.201 25.2409 45.6896 25.8941C47.1782 26.5473 48.5128 27.5061 49.6069 28.7083C54.6888 34.2518 54.1666 42.0008 48.2993 47.9917C48.1997 48.0934 48.1212 48.2137 48.0681 48.3458C48.015 48.4779 47.9885 48.6191 47.99 48.7615C47.9915 48.9038 48.021 49.0445 48.0769 49.1754C48.1327 49.3064 48.2138 49.425 48.3156 49.5246C48.4173 49.6242 48.5376 49.7027 48.6697 49.7558C48.8018 49.8089 48.943 49.8354 49.0854 49.8339C49.2277 49.8324 49.3684 49.8029 49.4993 49.747C49.6302 49.6912 49.7489 49.6101 49.8485 49.5083C56.4666 42.7473 57.0234 33.5931 51.2037 27.248C49.9007 25.8316 48.3183 24.7006 46.5562 23.9264C44.7942 23.1523 42.8908 22.7517 40.9662 22.75Z" fill="#5380EA"/>
<path d="M59.891 19.0666C60.1054 18.7957 60.2642 18.485 60.3581 18.1524C60.452 17.8199 60.4793 17.4721 60.4383 17.129C60.3973 16.7858 60.2889 16.4542 60.1193 16.1532C59.9497 15.8521 59.7223 15.5875 59.4501 15.3746L57.6333 13.9522C57.0822 13.5295 56.3868 13.3407 55.6975 13.4266C55.0082 13.5126 54.3805 13.8664 53.95 14.4116L52.7085 15.9932C50.1405 14.564 47.3285 13.6261 44.4167 13.2275V10.8333C45.2786 10.8333 46.1053 10.4909 46.7148 9.88141C47.3243 9.27192 47.6667 8.44527 47.6667 7.58331C47.6667 6.72136 47.3243 5.89471 46.7148 5.28522C46.1053 4.67572 45.2786 4.33331 44.4167 4.33331H37.9167C37.0547 4.33331 36.2281 4.67572 35.6186 5.28522C35.0091 5.89471 34.6667 6.72136 34.6667 7.58331C34.6667 8.44527 35.0091 9.27192 35.6186 9.88141C36.2281 10.4909 37.0547 10.8333 37.9167 10.8333V13.2275C35.0039 13.6255 32.1908 14.5631 29.6216 15.9921L28.3833 14.4083C27.9514 13.8648 27.3232 13.5128 26.6342 13.4283C25.9451 13.3438 25.2504 13.5335 24.7 13.9566L22.8811 15.3833C22.61 15.596 22.3836 15.8601 22.2147 16.1604C22.0457 16.4606 21.9377 16.7913 21.8966 17.1334C21.8556 17.4754 21.8823 17.8223 21.9754 18.154C22.0685 18.4857 22.2261 18.7959 22.4391 19.0666L23.6882 20.6559C23.0713 21.3206 22.4926 22.0197 21.9548 22.75H9.75C9.46268 22.75 9.18713 22.8641 8.98397 23.0673C8.7808 23.2704 8.66667 23.546 8.66667 23.8333C8.66667 24.1206 8.7808 24.3962 8.98397 24.5993C9.18713 24.8025 9.46268 24.9166 9.75 24.9166H20.54C20.1325 25.6195 19.7612 26.3426 19.4274 27.0833H11.9167C11.6293 27.0833 11.3538 27.1974 11.1506 27.4006C10.9475 27.6038 10.8333 27.8793 10.8333 28.1666C10.8333 28.454 10.9475 28.7295 11.1506 28.9327C11.3538 29.1358 11.6293 29.25 11.9167 29.25H18.577C18.3387 29.9585 18.1336 30.6807 17.9617 31.4166H3.25C2.96268 31.4166 2.68713 31.5308 2.48397 31.7339C2.2808 31.9371 2.16667 32.2127 2.16667 32.5C2.16667 32.7873 2.2808 33.0628 2.48397 33.266C2.68713 33.4692 2.96268 33.5833 3.25 33.5833H17.5608C17.4633 34.2961 17.394 35.0187 17.3604 35.75H1.08333C0.796016 35.75 0.520465 35.8641 0.317301 36.0673C0.114137 36.2704 0 36.546 0 36.8333C0 37.1206 0.114137 37.3962 0.317301 37.5993C0.520465 37.8025 0.796016 37.9166 1.08333 37.9166H17.3604C17.394 38.6479 17.4688 39.3705 17.5608 40.0833H3.25C2.96268 40.0833 2.68713 40.1974 2.48397 40.4006C2.2808 40.6038 2.16667 40.8793 2.16667 41.1666C2.16667 41.454 2.2808 41.7295 2.48397 41.9327C2.68713 42.1358 2.96268 42.25 3.25 42.25H17.9617C18.1343 42.9859 18.3394 43.7081 18.577 44.4166H11.9167C11.6293 44.4166 11.3538 44.5308 11.1506 44.7339C10.9475 44.9371 10.8333 45.2127 10.8333 45.5C10.8333 45.7873 10.9475 46.0629 11.1506 46.266C11.3538 46.4692 11.6293 46.5833 11.9167 46.5833H19.4274C19.7612 47.324 20.1325 48.0472 20.54 48.75H9.75C9.46268 48.75 9.18713 48.8641 8.98397 49.0673C8.7808 49.2704 8.66667 49.546 8.66667 49.8333C8.66667 50.1206 8.7808 50.3962 8.98397 50.5993C9.18713 50.8025 9.46268 50.9166 9.75 50.9166H21.9548C23.8708 53.5347 26.3014 55.7339 29.0975 57.3791C31.8937 59.0244 34.9964 60.0812 38.2156 60.4846C41.4347 60.888 44.7022 60.6296 47.8179 59.7252C50.9336 58.8208 53.8317 57.2895 56.3344 55.2251C58.8372 53.1608 60.8919 50.607 62.3726 47.7202C63.8532 44.8335 64.7285 41.6748 64.9449 38.4377C65.1612 35.2007 64.7141 31.9535 63.6308 28.8954C62.5475 25.8373 60.851 23.0328 58.6452 20.6537L59.891 19.0666ZM55.6552 15.7506C55.6917 15.7017 55.7376 15.6606 55.7902 15.6296C55.8428 15.5986 55.901 15.5783 55.9614 15.57C56.0219 15.5616 56.0834 15.5653 56.1424 15.5809C56.2014 15.5964 56.2567 15.6236 56.3052 15.6606L58.1122 17.0787C58.2097 17.1546 58.2732 17.266 58.2888 17.3886C58.2961 17.4484 58.2912 17.5091 58.2745 17.567C58.2577 17.6249 58.2294 17.6788 58.1913 17.7255L57.0917 19.1219C56.2943 18.4045 55.45 17.7411 54.5643 17.1361L55.6552 15.7506ZM36.8333 7.58331C36.8333 7.296 36.9475 7.02045 37.1506 6.81728C37.3538 6.61412 37.6293 6.49998 37.9167 6.49998H44.4167C44.704 6.49998 44.9795 6.61412 45.1827 6.81728C45.3859 7.02045 45.5 7.296 45.5 7.58331C45.5 7.87063 45.3859 8.14618 45.1827 8.34935C44.9795 8.55251 44.704 8.66665 44.4167 8.66665H37.9167C37.6293 8.66665 37.3538 8.55251 37.1506 8.34935C36.9475 8.14618 36.8333 7.87063 36.8333 7.58331ZM40.0833 10.8333H42.25V13.0271C41.8903 13.0108 41.5296 13 41.1667 13C40.8038 13 40.443 13.0108 40.0833 13.0271V10.8333ZM24.2201 17.082L26.0238 15.6661C26.1213 15.5917 26.2441 15.5587 26.3657 15.5741C26.4873 15.5895 26.598 15.6521 26.6738 15.7484L27.7626 17.1361C26.879 17.7412 26.0369 18.4046 25.2417 19.1219L24.1421 17.7233C24.1044 17.677 24.0765 17.6236 24.0599 17.5663C24.0433 17.509 24.0385 17.4489 24.0457 17.3896C24.0608 17.268 24.1235 17.1574 24.2201 17.082ZM41.1667 58.5C36.8814 58.5 32.6924 57.2293 29.1293 54.8485C25.5662 52.4677 22.7892 49.0839 21.1493 45.1248C19.5094 41.1657 19.0803 36.8093 19.9163 32.6064C20.7523 28.4034 22.8159 24.5428 25.846 21.5127C28.8762 18.4825 32.7368 16.419 36.9397 15.583C41.1426 14.747 45.4991 15.176 49.4581 16.8159C53.4172 18.4558 56.8011 21.2329 59.1818 24.796C61.5626 28.359 62.8333 32.5481 62.8333 36.8333C62.8267 42.5776 60.5419 48.0848 56.48 52.1467C52.4182 56.2085 46.911 58.4934 41.1667 58.5Z" fill="#5380EA"/>
<path d="M41.1666 17.3333C37.3099 17.3333 33.5398 18.477 30.333 20.6197C27.1263 22.7623 24.6269 25.8078 23.151 29.371C21.6751 32.9341 21.2889 36.8549 22.0413 40.6376C22.7937 44.4202 24.6509 47.8948 27.3781 50.6219C30.1052 53.349 33.5797 55.2062 37.3624 55.9586C41.145 56.711 45.0658 56.3249 48.629 54.849C52.1921 53.3731 55.2376 50.8737 57.3803 47.6669C59.523 44.4602 60.6666 40.69 60.6666 36.8333C60.6606 31.6634 58.6042 26.707 54.9486 23.0514C51.2929 19.3957 46.3365 17.3393 41.1666 17.3333ZM41.1666 54.1666C37.7384 54.1666 34.3872 53.1501 31.5368 51.2454C28.6863 49.3408 26.4646 46.6337 25.1527 43.4665C23.8408 40.2992 23.4975 36.8141 24.1664 33.4517C24.8352 30.0894 26.486 27.0009 28.9101 24.5768C31.3342 22.1527 34.4227 20.5018 37.7851 19.833C41.1474 19.1642 44.6326 19.5075 47.7998 20.8194C50.9671 22.1313 53.6742 24.353 55.5788 27.2034C57.4834 30.0539 58.5 33.4051 58.5 36.8333C58.4945 41.4287 56.6666 45.8344 53.4171 49.0838C50.1677 52.3333 45.762 54.1612 41.1666 54.1666Z" fill="#5380EA"/>
<path d="M7.58329 29.25C7.87061 29.25 8.14616 29.1358 8.34933 28.9327C8.55249 28.7295 8.66663 28.454 8.66663 28.1666C8.66663 27.8793 8.55249 27.6038 8.34933 27.4006C8.14616 27.1974 7.87061 27.0833 7.58329 27.0833H6.49996C6.21264 27.0833 5.93709 27.1974 5.73393 27.4006C5.53076 27.6038 5.41663 27.8793 5.41663 28.1666C5.41663 28.454 5.53076 28.7295 5.73393 28.9327C5.93709 29.1358 6.21264 29.25 6.49996 29.25H7.58329Z" fill="#5380EA"/>
<path d="M7.58329 46.5833C7.87061 46.5833 8.14616 46.4692 8.34933 46.266C8.55249 46.0628 8.66663 45.7873 8.66663 45.5C8.66663 45.2126 8.55249 44.9371 8.34933 44.7339C8.14616 44.5308 7.87061 44.4166 7.58329 44.4166H6.49996C6.21264 44.4166 5.93709 44.5308 5.73393 44.7339C5.53076 44.9371 5.41663 45.2126 5.41663 45.5C5.41663 45.7873 5.53076 46.0628 5.73393 46.266C5.93709 46.4692 6.21264 46.5833 6.49996 46.5833H7.58329Z" fill="#5380EA"/>
</svg>
